%
M48
M72
T01C0.0120
T02C0.1575
%
T01
X4450Y2600
X11850Y2200
X8900Y11050
X12800Y1650
X13600Y2450
X15250Y6400
X14000Y13650
X11300Y10950
X10700Y10950
X3900Y11100
X2400Y11100
X12150Y6400
X13600Y1650
X9150Y10650
X5350Y10650
X11750Y10950
X12050Y10650
X10950Y10650
X12650Y6350
X12000Y6050
T02
X1306Y18504
X15217Y18510
M30
