G75*
G70*
%OFA0B0*%
%FSLAX24Y24*%
%IPPOS*%
%LPD*%
%AMOC8*
5,1,8,0,0,1.08239X$1,22.5*
%
%ADD10C,0.0000*%
%ADD11C,0.0004*%
%ADD12C,0.0080*%
%ADD13C,0.0050*%
%ADD14C,0.0060*%
%ADD15C,0.0040*%
%ADD16R,0.0551X0.0256*%
%ADD17R,0.0039X0.0013*%
%ADD18R,0.0065X0.0013*%
%ADD19R,0.0078X0.0013*%
%ADD20R,0.0117X0.0013*%
%ADD21R,0.0130X0.0013*%
%ADD22R,0.0169X0.0013*%
%ADD23R,0.0195X0.0013*%
%ADD24R,0.0221X0.0013*%
%ADD25R,0.0247X0.0013*%
%ADD26R,0.0273X0.0013*%
%ADD27R,0.0299X0.0013*%
%ADD28R,0.0325X0.0013*%
%ADD29R,0.0351X0.0013*%
%ADD30R,0.0377X0.0013*%
%ADD31R,0.0416X0.0013*%
%ADD32R,0.0429X0.0013*%
%ADD33R,0.0429X0.0013*%
%ADD34R,0.0429X0.0013*%
%ADD35R,0.0416X0.0013*%
%ADD36R,0.0429X0.0013*%
%ADD37R,0.0416X0.0013*%
%ADD38R,0.1937X0.0013*%
%ADD39R,0.1664X0.0013*%
%ADD40R,0.1924X0.0013*%
%ADD41R,0.1664X0.0013*%
%ADD42R,0.1898X0.0013*%
%ADD43R,0.1885X0.0013*%
%ADD44R,0.1859X0.0013*%
%ADD45R,0.1846X0.0013*%
%ADD46R,0.1820X0.0013*%
%ADD47R,0.1807X0.0013*%
%ADD48R,0.1781X0.0013*%
%ADD49R,0.1768X0.0013*%
%ADD50R,0.1755X0.0013*%
%ADD51R,0.1742X0.0013*%
%ADD52R,0.1716X0.0013*%
%ADD53R,0.1703X0.0013*%
%ADD54R,0.1677X0.0013*%
%ADD55R,0.1651X0.0013*%
%ADD56R,0.1625X0.0013*%
%ADD57R,0.1612X0.0013*%
%ADD58R,0.1586X0.0013*%
%ADD59R,0.0260X0.0013*%
%ADD60R,0.0247X0.0013*%
%ADD61R,0.0260X0.0013*%
%ADD62R,0.0247X0.0013*%
%ADD63R,0.0195X0.0013*%
%ADD64R,0.0455X0.0013*%
%ADD65R,0.1430X0.0013*%
%ADD66R,0.1157X0.0013*%
%ADD67R,0.0520X0.0013*%
%ADD68R,0.1430X0.0013*%
%ADD69R,0.1287X0.0013*%
%ADD70R,0.0585X0.0013*%
%ADD71R,0.1352X0.0013*%
%ADD72R,0.0637X0.0013*%
%ADD73R,0.1443X0.0013*%
%ADD74R,0.1378X0.0013*%
%ADD75R,0.0689X0.0013*%
%ADD76R,0.1404X0.0013*%
%ADD77R,0.0715X0.0013*%
%ADD78R,0.1443X0.0013*%
%ADD79R,0.1417X0.0013*%
%ADD80R,0.0767X0.0013*%
%ADD81R,0.0793X0.0013*%
%ADD82R,0.1443X0.0013*%
%ADD83R,0.0819X0.0013*%
%ADD84R,0.1456X0.0013*%
%ADD85R,0.0871X0.0013*%
%ADD86R,0.1469X0.0013*%
%ADD87R,0.0884X0.0013*%
%ADD88R,0.1469X0.0013*%
%ADD89R,0.0897X0.0013*%
%ADD90R,0.1482X0.0013*%
%ADD91R,0.0923X0.0013*%
%ADD92R,0.1196X0.0013*%
%ADD93R,0.1495X0.0013*%
%ADD94R,0.1456X0.0013*%
%ADD95R,0.1209X0.0013*%
%ADD96R,0.1456X0.0013*%
%ADD97R,0.1508X0.0013*%
%ADD98R,0.1209X0.0013*%
%ADD99R,0.1521X0.0013*%
%ADD100R,0.1222X0.0013*%
%ADD101R,0.2756X0.0013*%
%ADD102R,0.1989X0.0013*%
%ADD103R,0.0715X0.0013*%
%ADD104R,0.1963X0.0013*%
%ADD105R,0.1950X0.0013*%
%ADD106R,0.0676X0.0013*%
%ADD107R,0.0663X0.0013*%
%ADD108R,0.0910X0.0013*%
%ADD109R,0.0936X0.0013*%
%ADD110R,0.2548X0.0013*%
%ADD111R,0.0910X0.0013*%
%ADD112R,0.0650X0.0013*%
%ADD113R,0.2548X0.0013*%
%ADD114R,0.0897X0.0013*%
%ADD115R,0.0650X0.0013*%
%ADD116R,0.0884X0.0013*%
%ADD117R,0.1547X0.0013*%
%ADD118R,0.1547X0.0013*%
%ADD119R,0.0871X0.0013*%
%ADD120R,0.1053X0.0013*%
%ADD121R,0.0468X0.0013*%
%ADD122R,0.1053X0.0013*%
%ADD123R,0.0468X0.0013*%
%ADD124R,0.1040X0.0013*%
%ADD125R,0.1027X0.0013*%
%ADD126R,0.1027X0.0013*%
%ADD127R,0.0663X0.0013*%
%ADD128R,0.1014X0.0013*%
%ADD129R,0.1001X0.0013*%
%ADD130R,0.0702X0.0013*%
%ADD131R,0.0416X0.0013*%
%ADD132R,0.0728X0.0013*%
%ADD133R,0.0741X0.0013*%
%ADD134R,0.0754X0.0013*%
%ADD135R,0.0780X0.0013*%
%ADD136R,0.0455X0.0013*%
%ADD137R,0.0819X0.0013*%
%ADD138R,0.0832X0.0013*%
%ADD139R,0.0468X0.0013*%
%ADD140R,0.0858X0.0013*%
%ADD141R,0.0871X0.0013*%
%ADD142R,0.0403X0.0013*%
%ADD143R,0.0403X0.0013*%
%ADD144R,0.0481X0.0013*%
%ADD145R,0.0533X0.0013*%
%ADD146R,0.0403X0.0013*%
%ADD147R,0.0689X0.0013*%
%ADD148R,0.1040X0.0013*%
%ADD149R,0.0403X0.0013*%
%ADD150R,0.0728X0.0013*%
%ADD151R,0.1014X0.0013*%
%ADD152R,0.0741X0.0013*%
%ADD153R,0.0988X0.0013*%
%ADD154R,0.0975X0.0013*%
%ADD155R,0.0754X0.0013*%
%ADD156R,0.0949X0.0013*%
%ADD157R,0.0754X0.0013*%
%ADD158R,0.0923X0.0013*%
%ADD159R,0.0845X0.0013*%
%ADD160R,0.0845X0.0013*%
%ADD161R,0.0741X0.0013*%
%ADD162R,0.0728X0.0013*%
%ADD163R,0.0390X0.0013*%
%ADD164R,0.0975X0.0013*%
%ADD165R,0.0390X0.0013*%
%ADD166R,0.0988X0.0013*%
%ADD167R,0.0702X0.0013*%
%ADD168R,0.0676X0.0013*%
%ADD169R,0.0663X0.0013*%
%ADD170R,0.0481X0.0013*%
%ADD171R,0.0442X0.0013*%
%ADD172R,0.0624X0.0013*%
%ADD173R,0.0442X0.0013*%
%ADD174R,0.0611X0.0013*%
%ADD175R,0.0598X0.0013*%
%ADD176R,0.0572X0.0013*%
%ADD177R,0.1001X0.0013*%
%ADD178R,0.0949X0.0013*%
%ADD179R,0.0377X0.0013*%
%ADD180R,0.0858X0.0013*%
%ADD181R,0.0676X0.0013*%
%ADD182R,0.0858X0.0013*%
%ADD183R,0.0806X0.0013*%
%ADD184R,0.0780X0.0013*%
%ADD185R,0.0871X0.0013*%
%ADD186R,0.0767X0.0013*%
%ADD187R,0.0689X0.0013*%
%ADD188R,0.0988X0.0013*%
%ADD189R,0.0988X0.0013*%
%ADD190R,0.0962X0.0013*%
%ADD191R,0.0949X0.0013*%
%ADD192R,0.0962X0.0013*%
%ADD193R,0.0936X0.0013*%
%ADD194R,0.0858X0.0013*%
%ADD195R,0.0832X0.0013*%
%ADD196R,0.0806X0.0013*%
%ADD197R,0.0832X0.0013*%
%ADD198R,0.0702X0.0013*%
%ADD199R,0.0793X0.0013*%
%ADD200R,0.0624X0.0013*%
%ADD201R,0.0546X0.0013*%
%ADD202R,0.0364X0.0013*%
%ADD203R,0.0221X0.0013*%
%ADD204R,0.1521X0.0013*%
%ADD205R,0.1521X0.0013*%
%ADD206R,0.4394X0.0013*%
%ADD207R,0.4394X0.0013*%
%ADD208C,0.0059*%
D10*
X002243Y020379D02*
X002245Y020435D01*
X002251Y020490D01*
X002261Y020544D01*
X002274Y020598D01*
X002292Y020651D01*
X002313Y020702D01*
X002337Y020752D01*
X002365Y020800D01*
X002397Y020846D01*
X002431Y020890D01*
X002469Y020931D01*
X002509Y020969D01*
X002552Y021004D01*
X002597Y021036D01*
X002645Y021065D01*
X002694Y021091D01*
X002745Y021113D01*
X002797Y021131D01*
X002851Y021145D01*
X002906Y021156D01*
X002961Y021163D01*
X003016Y021166D01*
X003072Y021165D01*
X003127Y021160D01*
X003182Y021151D01*
X003236Y021139D01*
X003289Y021122D01*
X003341Y021102D01*
X003391Y021078D01*
X003439Y021051D01*
X003486Y021021D01*
X003530Y020987D01*
X003572Y020950D01*
X003610Y020910D01*
X003647Y020868D01*
X003680Y020823D01*
X003709Y020777D01*
X003736Y020728D01*
X003758Y020677D01*
X003778Y020625D01*
X003793Y020571D01*
X003805Y020517D01*
X003813Y020462D01*
X003817Y020407D01*
X003817Y020351D01*
X003813Y020296D01*
X003805Y020241D01*
X003793Y020187D01*
X003778Y020133D01*
X003758Y020081D01*
X003736Y020030D01*
X003709Y019981D01*
X003680Y019935D01*
X003647Y019890D01*
X003610Y019848D01*
X003572Y019808D01*
X003530Y019771D01*
X003486Y019737D01*
X003439Y019707D01*
X003391Y019680D01*
X003341Y019656D01*
X003289Y019636D01*
X003236Y019619D01*
X003182Y019607D01*
X003127Y019598D01*
X003072Y019593D01*
X003016Y019592D01*
X002961Y019595D01*
X002906Y019602D01*
X002851Y019613D01*
X002797Y019627D01*
X002745Y019645D01*
X002694Y019667D01*
X002645Y019693D01*
X002597Y019722D01*
X002552Y019754D01*
X002509Y019789D01*
X002469Y019827D01*
X002431Y019868D01*
X002397Y019912D01*
X002365Y019958D01*
X002337Y020006D01*
X002313Y020056D01*
X002292Y020107D01*
X002274Y020160D01*
X002261Y020214D01*
X002251Y020268D01*
X002245Y020323D01*
X002243Y020379D01*
X016153Y020385D02*
X016155Y020441D01*
X016161Y020496D01*
X016171Y020550D01*
X016184Y020604D01*
X016202Y020657D01*
X016223Y020708D01*
X016247Y020758D01*
X016275Y020806D01*
X016307Y020852D01*
X016341Y020896D01*
X016379Y020937D01*
X016419Y020975D01*
X016462Y021010D01*
X016507Y021042D01*
X016555Y021071D01*
X016604Y021097D01*
X016655Y021119D01*
X016707Y021137D01*
X016761Y021151D01*
X016816Y021162D01*
X016871Y021169D01*
X016926Y021172D01*
X016982Y021171D01*
X017037Y021166D01*
X017092Y021157D01*
X017146Y021145D01*
X017199Y021128D01*
X017251Y021108D01*
X017301Y021084D01*
X017349Y021057D01*
X017396Y021027D01*
X017440Y020993D01*
X017482Y020956D01*
X017520Y020916D01*
X017557Y020874D01*
X017590Y020829D01*
X017619Y020783D01*
X017646Y020734D01*
X017668Y020683D01*
X017688Y020631D01*
X017703Y020577D01*
X017715Y020523D01*
X017723Y020468D01*
X017727Y020413D01*
X017727Y020357D01*
X017723Y020302D01*
X017715Y020247D01*
X017703Y020193D01*
X017688Y020139D01*
X017668Y020087D01*
X017646Y020036D01*
X017619Y019987D01*
X017590Y019941D01*
X017557Y019896D01*
X017520Y019854D01*
X017482Y019814D01*
X017440Y019777D01*
X017396Y019743D01*
X017349Y019713D01*
X017301Y019686D01*
X017251Y019662D01*
X017199Y019642D01*
X017146Y019625D01*
X017092Y019613D01*
X017037Y019604D01*
X016982Y019599D01*
X016926Y019598D01*
X016871Y019601D01*
X016816Y019608D01*
X016761Y019619D01*
X016707Y019633D01*
X016655Y019651D01*
X016604Y019673D01*
X016555Y019699D01*
X016507Y019728D01*
X016462Y019760D01*
X016419Y019795D01*
X016379Y019833D01*
X016341Y019874D01*
X016307Y019918D01*
X016275Y019964D01*
X016247Y020012D01*
X016223Y020062D01*
X016202Y020113D01*
X016184Y020166D01*
X016171Y020220D01*
X016161Y020274D01*
X016155Y020329D01*
X016153Y020385D01*
D11*
X009597Y001875D02*
X002723Y001875D01*
X002663Y001877D01*
X002602Y001882D01*
X002543Y001891D01*
X002484Y001904D01*
X002425Y001920D01*
X002368Y001940D01*
X002313Y001963D01*
X002258Y001990D01*
X002206Y002019D01*
X002155Y002052D01*
X002106Y002088D01*
X002060Y002126D01*
X002016Y002168D01*
X001974Y002212D01*
X001936Y002258D01*
X001900Y002307D01*
X001867Y002358D01*
X001838Y002410D01*
X001811Y002465D01*
X001788Y002520D01*
X001768Y002577D01*
X001752Y002636D01*
X001739Y002695D01*
X001730Y002754D01*
X001725Y002815D01*
X001723Y002875D01*
X001723Y010930D01*
X001723Y020560D01*
X001725Y020620D01*
X001730Y020681D01*
X001739Y020740D01*
X001752Y020799D01*
X001768Y020858D01*
X001788Y020915D01*
X001811Y020970D01*
X001838Y021025D01*
X001867Y021077D01*
X001900Y021128D01*
X001936Y021177D01*
X001974Y021223D01*
X002016Y021267D01*
X002060Y021309D01*
X002106Y021347D01*
X002155Y021383D01*
X002206Y021416D01*
X002258Y021445D01*
X002313Y021472D01*
X002368Y021495D01*
X002425Y021515D01*
X002484Y021531D01*
X002543Y021544D01*
X002602Y021553D01*
X002663Y021558D01*
X002723Y021560D01*
X010385Y021560D01*
X017259Y021560D01*
X017319Y021558D01*
X017380Y021553D01*
X017439Y021544D01*
X017498Y021531D01*
X017557Y021515D01*
X017614Y021495D01*
X017669Y021472D01*
X017724Y021445D01*
X017776Y021416D01*
X017827Y021383D01*
X017876Y021347D01*
X017922Y021309D01*
X017966Y021267D01*
X018008Y021223D01*
X018046Y021177D01*
X018082Y021128D01*
X018115Y021077D01*
X018144Y021025D01*
X018171Y020970D01*
X018194Y020915D01*
X018214Y020858D01*
X018230Y020799D01*
X018243Y020740D01*
X018252Y020681D01*
X018257Y020620D01*
X018259Y020560D01*
X018259Y010142D01*
X018259Y002875D01*
X018257Y002815D01*
X018252Y002754D01*
X018243Y002695D01*
X018230Y002636D01*
X018214Y002577D01*
X018194Y002520D01*
X018171Y002465D01*
X018144Y002410D01*
X018115Y002358D01*
X018082Y002307D01*
X018046Y002258D01*
X018008Y002212D01*
X017966Y002168D01*
X017922Y002126D01*
X017876Y002088D01*
X017827Y002052D01*
X017776Y002019D01*
X017724Y001990D01*
X017669Y001963D01*
X017614Y001940D01*
X017557Y001920D01*
X017498Y001904D01*
X017439Y001891D01*
X017380Y001882D01*
X017319Y001877D01*
X017259Y001875D01*
X009597Y001875D01*
D12*
X007904Y002938D02*
X008052Y003036D01*
X008205Y003127D01*
X008362Y003211D01*
X008523Y003287D01*
X008687Y003354D01*
X008855Y003414D01*
X009025Y003465D01*
X009197Y003508D01*
X009372Y003543D01*
X009548Y003569D01*
X009725Y003586D01*
X009902Y003595D01*
X010080Y003595D01*
X010257Y003586D01*
X010434Y003569D01*
X010610Y003543D01*
X010785Y003508D01*
X010957Y003465D01*
X011127Y003414D01*
X011295Y003354D01*
X011459Y003287D01*
X011620Y003211D01*
X011777Y003127D01*
X011930Y003036D01*
X012078Y002938D01*
X012125Y002889D01*
X012173Y002842D01*
X012225Y002798D01*
X012279Y002757D01*
X012335Y002719D01*
X012394Y002685D01*
X012454Y002654D01*
X012516Y002626D01*
X012579Y002603D01*
X012644Y002583D01*
X012710Y002566D01*
X012777Y002554D01*
X012844Y002545D01*
X012911Y002541D01*
X012979Y002540D01*
X013047Y002543D01*
X013114Y002551D01*
X013181Y002562D01*
X013247Y002577D01*
X013312Y002595D01*
X013376Y002618D01*
X013439Y002644D01*
X013500Y002674D01*
X013559Y002707D01*
X013616Y002744D01*
X013671Y002783D01*
X013723Y002826D01*
X013773Y002872D01*
X013820Y002921D01*
X013864Y002972D01*
X013905Y003026D01*
X013943Y003082D01*
X013978Y003141D01*
X014009Y003201D01*
X014037Y003263D01*
X014061Y003326D01*
X014081Y003391D01*
X014098Y003456D01*
X014110Y003523D01*
X014119Y003590D01*
X014124Y003658D01*
X014125Y003725D01*
X014125Y004867D01*
X014125Y007544D02*
X014125Y007977D01*
X011448Y010367D01*
X008534Y010367D01*
X005857Y007977D01*
X005857Y007544D01*
X005857Y004867D02*
X005857Y003725D01*
X005859Y003658D01*
X005866Y003592D01*
X005876Y003525D01*
X005890Y003460D01*
X005907Y003395D01*
X005928Y003331D01*
X005953Y003269D01*
X005981Y003208D01*
X006013Y003149D01*
X006048Y003091D01*
X006086Y003036D01*
X006128Y002983D01*
X006172Y002933D01*
X006219Y002885D01*
X006269Y002840D01*
X006321Y002798D01*
X006375Y002759D01*
X006432Y002723D01*
X006490Y002690D01*
X006551Y002660D01*
X006613Y002635D01*
X006676Y002612D01*
X006741Y002594D01*
X006806Y002579D01*
X006872Y002567D01*
X006939Y002560D01*
X007006Y002556D01*
X007073Y002557D01*
X007140Y002561D01*
X007207Y002568D01*
X007273Y002580D01*
X007338Y002595D01*
X007402Y002614D01*
X007466Y002637D01*
X007527Y002663D01*
X007588Y002693D01*
X007646Y002726D01*
X007702Y002762D01*
X007757Y002802D01*
X007809Y002844D01*
X007858Y002890D01*
X007905Y002938D01*
X007896Y018745D02*
X007542Y018745D01*
X007424Y018863D01*
X007542Y018981D01*
X007896Y018981D01*
X007896Y019099D02*
X007778Y019217D01*
X007542Y019217D01*
X007896Y019099D02*
X007896Y018745D01*
X008149Y018745D02*
X008385Y018745D01*
X008267Y018745D02*
X008267Y019453D01*
X008149Y019453D01*
X008633Y019453D02*
X008751Y019453D01*
X008751Y018745D01*
X008633Y018745D02*
X008869Y018745D01*
X009116Y018745D02*
X009116Y019217D01*
X009116Y018981D02*
X009352Y019217D01*
X009470Y019217D01*
X009720Y019099D02*
X009720Y018863D01*
X009838Y018745D01*
X010074Y018745D01*
X010192Y018863D01*
X010192Y019099D01*
X010074Y019217D01*
X009838Y019217D01*
X009720Y019099D01*
X010445Y019099D02*
X010445Y018863D01*
X010563Y018745D01*
X010799Y018745D01*
X010917Y018863D01*
X010917Y019099D01*
X010799Y019217D01*
X010563Y019217D01*
X010445Y019099D01*
X011170Y019217D02*
X011170Y018745D01*
X011406Y018745D02*
X011406Y019099D01*
X011524Y019217D01*
X011642Y019099D01*
X011642Y018745D01*
X011895Y018745D02*
X012131Y018745D01*
X012013Y018745D02*
X012013Y019453D01*
X011895Y019453D01*
X012378Y018863D02*
X012496Y018981D01*
X012850Y018981D01*
X012850Y019099D02*
X012732Y019217D01*
X012496Y019217D01*
X012378Y018863D02*
X012496Y018745D01*
X012850Y018745D01*
X012850Y019099D01*
X013103Y019217D02*
X013457Y019217D01*
X013575Y019099D01*
X013575Y018863D01*
X013457Y018745D01*
X013103Y018745D01*
X013103Y019453D01*
X013828Y019099D02*
X013946Y019217D01*
X014300Y019217D01*
X014182Y018981D02*
X013946Y018981D01*
X013828Y019099D01*
X013828Y018745D02*
X014182Y018745D01*
X014300Y018863D01*
X014182Y018981D01*
X014553Y018863D02*
X014553Y018745D01*
X014671Y018745D01*
X014671Y018863D01*
X014553Y018863D01*
X014916Y018863D02*
X015034Y018745D01*
X015388Y018745D01*
X015641Y018863D02*
X015759Y018745D01*
X015995Y018745D01*
X016113Y018863D01*
X016113Y019099D01*
X015995Y019217D01*
X015759Y019217D01*
X015641Y019099D01*
X015641Y018863D01*
X015388Y019217D02*
X015034Y019217D01*
X014916Y019099D01*
X014916Y018863D01*
X016366Y018745D02*
X016366Y019217D01*
X016484Y019217D01*
X016602Y019099D01*
X016720Y019217D01*
X016838Y019099D01*
X016838Y018745D01*
X016602Y018745D02*
X016602Y019099D01*
X011406Y019099D02*
X011288Y019217D01*
X011170Y019217D01*
X007171Y019099D02*
X007171Y018745D01*
X006935Y018745D02*
X006935Y019099D01*
X007053Y019217D01*
X007171Y019099D01*
X006935Y019099D02*
X006817Y019217D01*
X006699Y019217D01*
X006699Y018745D01*
X006446Y018863D02*
X006328Y018981D01*
X006092Y018981D01*
X005974Y019099D01*
X006092Y019217D01*
X006446Y019217D01*
X006446Y018863D02*
X006328Y018745D01*
X005974Y018745D01*
X005730Y018745D02*
X005730Y018863D01*
X005612Y018863D01*
X005612Y018745D01*
X005730Y018745D01*
X005359Y018863D02*
X005359Y019217D01*
X005359Y018863D02*
X005241Y018745D01*
X005123Y018863D01*
X005005Y018745D01*
X004887Y018863D01*
X004887Y019217D01*
X004634Y019217D02*
X004634Y018863D01*
X004516Y018745D01*
X004398Y018863D01*
X004280Y018745D01*
X004162Y018863D01*
X004162Y019217D01*
X003909Y019217D02*
X003909Y018863D01*
X003791Y018745D01*
X003673Y018863D01*
X003555Y018745D01*
X003437Y018863D01*
X003437Y019217D01*
D13*
X010142Y015903D02*
X010142Y015516D01*
X010239Y015419D01*
X010432Y015419D01*
X010529Y015516D01*
X010529Y015903D01*
X010432Y016000D01*
X010239Y016000D01*
X010142Y015903D01*
X010722Y015806D02*
X010722Y015226D01*
X010722Y015419D02*
X011012Y015419D01*
X011109Y015516D01*
X011109Y015710D01*
X011012Y015806D01*
X010722Y015806D01*
X011302Y015710D02*
X011302Y015516D01*
X011399Y015419D01*
X011592Y015419D01*
X011689Y015613D02*
X011302Y015613D01*
X011302Y015710D02*
X011399Y015806D01*
X011592Y015806D01*
X011689Y015710D01*
X011689Y015613D01*
X011882Y015806D02*
X011882Y015419D01*
X011882Y015806D02*
X012172Y015806D01*
X012269Y015710D01*
X012269Y015419D01*
X012246Y014920D02*
X012342Y014920D01*
X012246Y014920D02*
X012052Y014727D01*
X011859Y014727D02*
X011569Y014727D01*
X011472Y014630D01*
X011569Y014534D01*
X011859Y014534D01*
X011859Y014824D01*
X011762Y014920D01*
X011569Y014920D01*
X011279Y014824D02*
X010892Y014824D01*
X010892Y014534D02*
X010892Y015114D01*
X011279Y015114D02*
X011279Y014534D01*
X012052Y014534D02*
X012052Y014920D01*
X012536Y014824D02*
X012536Y014630D01*
X012632Y014534D01*
X012922Y014534D01*
X012922Y015114D01*
X012922Y014920D02*
X012632Y014920D01*
X012536Y014824D01*
X013116Y014920D02*
X013116Y014630D01*
X013212Y014534D01*
X013309Y014630D01*
X013406Y014534D01*
X013502Y014630D01*
X013502Y014920D01*
X013792Y014920D02*
X013986Y014920D01*
X014082Y014824D01*
X014082Y014534D01*
X013792Y014534D01*
X013696Y014630D01*
X013792Y014727D01*
X014082Y014727D01*
X014276Y014727D02*
X014469Y014920D01*
X014566Y014920D01*
X014759Y014824D02*
X014759Y014630D01*
X014856Y014534D01*
X015049Y014534D01*
X015146Y014727D02*
X014759Y014727D01*
X014759Y014824D02*
X014856Y014920D01*
X015049Y014920D01*
X015146Y014824D01*
X015146Y014727D01*
X015362Y015419D02*
X015652Y015419D01*
X015846Y015516D02*
X015846Y015710D01*
X015942Y015806D01*
X016136Y015806D01*
X016232Y015710D01*
X016232Y015613D01*
X015846Y015613D01*
X015846Y015516D02*
X015942Y015419D01*
X016136Y015419D01*
X015652Y015806D02*
X015362Y015806D01*
X015266Y015710D01*
X015266Y015516D01*
X015362Y015419D01*
X015072Y015806D02*
X014976Y015806D01*
X014782Y015613D01*
X014782Y015806D02*
X014782Y015419D01*
X014589Y015419D02*
X014589Y015806D01*
X014589Y015419D02*
X014299Y015419D01*
X014202Y015516D01*
X014202Y015806D01*
X014009Y015710D02*
X014009Y015516D01*
X013912Y015419D01*
X013719Y015419D01*
X013622Y015516D01*
X013622Y015710D01*
X013719Y015806D01*
X013912Y015806D01*
X014009Y015710D01*
X013429Y015613D02*
X013429Y015516D01*
X013332Y015419D01*
X013139Y015419D01*
X013042Y015516D01*
X013139Y015710D02*
X013332Y015710D01*
X013429Y015613D01*
X013429Y015903D02*
X013332Y016000D01*
X013139Y016000D01*
X013042Y015903D01*
X013042Y015806D01*
X013139Y015710D01*
X014276Y014920D02*
X014276Y014534D01*
X014453Y010952D02*
X014603Y010952D01*
X014528Y010952D02*
X014528Y010576D01*
X014453Y010501D01*
X014378Y010501D01*
X014303Y010576D01*
X014764Y010501D02*
X015064Y010801D01*
X015064Y010877D01*
X014989Y010952D01*
X014839Y010952D01*
X014764Y010877D01*
X014764Y010501D02*
X015064Y010501D01*
X013609Y010501D02*
X013309Y010501D01*
X013459Y010501D02*
X013459Y010952D01*
X013309Y010801D01*
X013149Y010952D02*
X012999Y010952D01*
X013074Y010952D02*
X013074Y010576D01*
X012999Y010501D01*
X012924Y010501D01*
X012848Y010576D01*
X009291Y011757D02*
X009293Y011769D01*
X009298Y011780D01*
X009307Y011789D01*
X009318Y011794D01*
X009330Y011796D01*
X009342Y011794D01*
X009353Y011789D01*
X009362Y011780D01*
X009367Y011769D01*
X009369Y011757D01*
X009367Y011745D01*
X009362Y011734D01*
X009353Y011725D01*
X009342Y011720D01*
X009330Y011718D01*
X009318Y011720D01*
X009307Y011725D01*
X009298Y011734D01*
X009293Y011745D01*
X009291Y011757D01*
D14*
X009201Y011556D02*
X009164Y011556D01*
X009164Y012194D01*
X009201Y012194D01*
X009518Y012194D02*
X009929Y012194D01*
X010246Y012194D02*
X010283Y012194D01*
X010283Y011556D01*
X010246Y011556D01*
X009929Y011556D02*
X009892Y011556D01*
X009555Y011556D02*
X009518Y011556D01*
X012823Y011325D02*
X012823Y012425D01*
X012825Y012442D01*
X012829Y012459D01*
X012836Y012475D01*
X012846Y012489D01*
X012859Y012502D01*
X012873Y012512D01*
X012889Y012519D01*
X012906Y012523D01*
X012923Y012525D01*
X013523Y012525D01*
X013540Y012523D01*
X013557Y012519D01*
X013573Y012512D01*
X013587Y012502D01*
X013600Y012489D01*
X013610Y012475D01*
X013617Y012459D01*
X013621Y012442D01*
X013623Y012425D01*
X013623Y011325D01*
X013621Y011308D01*
X013617Y011291D01*
X013610Y011275D01*
X013600Y011261D01*
X013587Y011248D01*
X013573Y011238D01*
X013557Y011231D01*
X013540Y011227D01*
X013523Y011225D01*
X012923Y011225D01*
X012906Y011227D01*
X012889Y011231D01*
X012873Y011238D01*
X012859Y011248D01*
X012846Y011261D01*
X012836Y011275D01*
X012829Y011291D01*
X012825Y011308D01*
X012823Y011325D01*
X014323Y011325D02*
X014323Y012425D01*
X014325Y012442D01*
X014329Y012459D01*
X014336Y012475D01*
X014346Y012489D01*
X014359Y012502D01*
X014373Y012512D01*
X014389Y012519D01*
X014406Y012523D01*
X014423Y012525D01*
X015023Y012525D01*
X015040Y012523D01*
X015057Y012519D01*
X015073Y012512D01*
X015087Y012502D01*
X015100Y012489D01*
X015110Y012475D01*
X015117Y012459D01*
X015121Y012442D01*
X015123Y012425D01*
X015123Y011325D01*
X015121Y011308D01*
X015117Y011291D01*
X015110Y011275D01*
X015100Y011261D01*
X015087Y011248D01*
X015073Y011238D01*
X015057Y011231D01*
X015040Y011227D01*
X015023Y011225D01*
X014423Y011225D01*
X014406Y011227D01*
X014389Y011231D01*
X014373Y011238D01*
X014359Y011248D01*
X014346Y011261D01*
X014336Y011275D01*
X014329Y011291D01*
X014325Y011308D01*
X014323Y011325D01*
D15*
X012244Y010881D02*
X012244Y010421D01*
X012397Y010421D02*
X012090Y010421D01*
X011937Y010498D02*
X011860Y010421D01*
X011706Y010421D01*
X011630Y010498D01*
X011630Y010805D01*
X011706Y010881D01*
X011860Y010881D01*
X011937Y010805D01*
X012090Y010728D02*
X012244Y010881D01*
X010318Y010572D02*
X010011Y010572D01*
X010164Y010572D02*
X010164Y011032D01*
X010011Y010879D01*
X009857Y010955D02*
X009781Y011032D01*
X009627Y011032D01*
X009550Y010955D01*
X009550Y010649D01*
X009627Y010572D01*
X009781Y010572D01*
X009857Y010649D01*
X009397Y010572D02*
X009243Y010572D01*
X009320Y010572D02*
X009320Y011032D01*
X009243Y011032D02*
X009397Y011032D01*
X008109Y010698D02*
X007802Y010698D01*
X007649Y010698D02*
X007495Y010851D01*
X007572Y010851D02*
X007342Y010851D01*
X007342Y010698D02*
X007342Y011158D01*
X007572Y011158D01*
X007649Y011081D01*
X007649Y010928D01*
X007572Y010851D01*
X007802Y011005D02*
X007956Y011158D01*
X007956Y010698D01*
X006958Y010698D02*
X006651Y010698D01*
X006958Y011005D01*
X006958Y011081D01*
X006881Y011158D01*
X006727Y011158D01*
X006651Y011081D01*
X006497Y011081D02*
X006497Y010928D01*
X006420Y010851D01*
X006190Y010851D01*
X006190Y010698D02*
X006190Y011158D01*
X006420Y011158D01*
X006497Y011081D01*
X006344Y010851D02*
X006497Y010698D01*
X005708Y010774D02*
X005631Y010698D01*
X005477Y010698D01*
X005401Y010774D01*
X005247Y010698D02*
X005094Y010851D01*
X005170Y010851D02*
X004940Y010851D01*
X004940Y010698D02*
X004940Y011158D01*
X005170Y011158D01*
X005247Y011081D01*
X005247Y010928D01*
X005170Y010851D01*
X005401Y011081D02*
X005477Y011158D01*
X005631Y011158D01*
X005708Y011081D01*
X005708Y011005D01*
X005631Y010928D01*
X005708Y010851D01*
X005708Y010774D01*
X005631Y010928D02*
X005554Y010928D01*
X003708Y009005D02*
X003631Y009081D01*
X003401Y009081D01*
X003401Y008621D01*
X003248Y008621D02*
X002941Y008621D01*
X002941Y009081D01*
X002787Y009005D02*
X002711Y009081D01*
X002557Y009081D01*
X002480Y009005D01*
X002480Y008698D01*
X002557Y008621D01*
X002711Y008621D01*
X002787Y008698D01*
X002327Y008621D02*
X002327Y009081D01*
X002173Y008928D01*
X002020Y009081D01*
X002020Y008621D01*
X003401Y008774D02*
X003631Y008774D01*
X003708Y008851D01*
X003708Y009005D01*
X003555Y008774D02*
X003708Y008621D01*
X003238Y013649D02*
X003008Y013649D01*
X003008Y014109D01*
X003238Y014109D01*
X003315Y014032D01*
X003315Y013725D01*
X003238Y013649D01*
X002854Y013649D02*
X002854Y014109D01*
X002547Y014109D02*
X002854Y013649D01*
X002547Y013649D02*
X002547Y014109D01*
X002394Y014032D02*
X002317Y014109D01*
X002164Y014109D01*
X002087Y014032D01*
X002087Y013725D01*
X002164Y013649D01*
X002317Y013649D01*
X002394Y013725D01*
X002394Y013879D01*
X002240Y013879D01*
X015847Y009111D02*
X015847Y008804D01*
X015924Y008727D01*
X016077Y008727D01*
X016154Y008804D01*
X016307Y008727D02*
X016614Y008727D01*
X016768Y008804D02*
X016844Y008727D01*
X016998Y008727D01*
X017074Y008804D01*
X017074Y009111D01*
X016998Y009188D01*
X016844Y009188D01*
X016768Y009111D01*
X016768Y008804D01*
X017228Y008804D02*
X017228Y009111D01*
X017305Y009188D01*
X017458Y009188D01*
X017535Y009111D01*
X017688Y009188D02*
X017688Y008727D01*
X017688Y008881D02*
X017995Y009188D01*
X017765Y008957D02*
X017995Y008727D01*
X017535Y008804D02*
X017458Y008727D01*
X017305Y008727D01*
X017228Y008804D01*
X016307Y008727D02*
X016307Y009188D01*
X016154Y009111D02*
X016077Y009188D01*
X015924Y009188D01*
X015847Y009111D01*
X016381Y013869D02*
X016611Y013869D01*
X016688Y013946D01*
X016688Y014253D01*
X016611Y014329D01*
X016381Y014329D01*
X016381Y013869D01*
X016842Y013869D02*
X016842Y014176D01*
X016995Y014329D01*
X017149Y014176D01*
X017149Y013869D01*
X017149Y014099D02*
X016842Y014099D01*
X017302Y014329D02*
X017609Y014329D01*
X017455Y014329D02*
X017455Y013869D01*
X017762Y013869D02*
X017762Y014176D01*
X017916Y014329D01*
X018069Y014176D01*
X018069Y013869D01*
X018069Y014099D02*
X017762Y014099D01*
D16*
X007723Y012163D03*
X007723Y011583D03*
X006473Y011583D03*
X006473Y012163D03*
X005223Y012163D03*
X005223Y011583D03*
D17*
X007247Y013994D03*
D18*
X007247Y014007D03*
D19*
X007240Y014020D03*
D20*
X007234Y014033D03*
D21*
X007227Y014046D03*
D22*
X007221Y014059D03*
D23*
X007221Y014072D03*
D24*
X007221Y014085D03*
D25*
X007208Y014098D03*
D26*
X007208Y014111D03*
D27*
X007208Y014124D03*
D28*
X007195Y014137D03*
D29*
X007195Y014150D03*
X008313Y015606D03*
D30*
X007195Y014163D03*
X006389Y016919D03*
X006389Y016945D03*
X006389Y016958D03*
X006389Y016971D03*
D31*
X005953Y016828D03*
X005953Y016815D03*
X005940Y016724D03*
X005940Y016711D03*
X005940Y016698D03*
X005927Y016633D03*
X005927Y016620D03*
X005927Y016594D03*
X005888Y016334D03*
X005888Y016321D03*
X005888Y016308D03*
X005888Y016295D03*
X006460Y016321D03*
X006460Y016334D03*
X006460Y016360D03*
X006460Y016373D03*
X006460Y016386D03*
X006447Y016425D03*
X006447Y016438D03*
X006447Y016451D03*
X006447Y016464D03*
X006473Y016295D03*
X006473Y014709D03*
X006525Y014670D03*
X007188Y014176D03*
D32*
X007182Y014189D03*
X007104Y014241D03*
X007052Y014280D03*
X007039Y014293D03*
X006974Y014345D03*
X006922Y014384D03*
X006857Y014423D03*
X006844Y014436D03*
X006792Y014475D03*
X006662Y014566D03*
X006649Y014579D03*
X006597Y014618D03*
X006584Y014631D03*
X006402Y014761D03*
X006389Y014774D03*
X006467Y016308D03*
D33*
X006545Y014657D03*
X006805Y014462D03*
X006896Y014397D03*
X007078Y014267D03*
X007156Y014202D03*
D34*
X007143Y014215D03*
X007130Y014228D03*
X007091Y014254D03*
X007026Y014306D03*
X006948Y014358D03*
X006935Y014371D03*
X006818Y014449D03*
X006766Y014488D03*
X006753Y014501D03*
X006740Y014514D03*
X006701Y014540D03*
X006610Y014605D03*
X006558Y014644D03*
X006506Y014683D03*
X006493Y014696D03*
X006441Y014735D03*
X007546Y016763D03*
X007546Y016776D03*
X007988Y017088D03*
X007988Y017101D03*
D35*
X006434Y016568D03*
X006434Y016555D03*
X005914Y016529D03*
X005914Y016516D03*
X005914Y016503D03*
X005914Y016490D03*
X005901Y016438D03*
X005901Y016425D03*
X005901Y016399D03*
X005901Y016386D03*
X005901Y016373D03*
X005901Y016360D03*
X005966Y016893D03*
X005966Y016906D03*
X005966Y016919D03*
X006421Y014748D03*
X006681Y014553D03*
X006876Y014410D03*
X007006Y014319D03*
D36*
X006987Y014332D03*
X006714Y014527D03*
X006454Y014722D03*
D37*
X006629Y014592D03*
X005901Y016412D03*
X005914Y016542D03*
X005966Y016932D03*
D38*
X005609Y014787D03*
D39*
X005472Y014982D03*
X008202Y014982D03*
X008202Y014917D03*
X008202Y014852D03*
X008202Y014787D03*
X008202Y018167D03*
X008202Y018297D03*
X008202Y018362D03*
D40*
X005602Y014800D03*
D41*
X008202Y014813D03*
X008202Y014826D03*
X008202Y014839D03*
X008202Y014865D03*
X008202Y014878D03*
X008202Y014891D03*
X008202Y014904D03*
X008202Y014930D03*
X008202Y014943D03*
X008202Y014956D03*
X008202Y014969D03*
X008202Y014995D03*
X008202Y015008D03*
X008202Y015021D03*
X008202Y015034D03*
X008202Y014800D03*
X008202Y018115D03*
X008202Y018128D03*
X008202Y018141D03*
X008202Y018154D03*
X008202Y018180D03*
X008202Y018310D03*
X008202Y018323D03*
X008202Y018336D03*
X008202Y018349D03*
D42*
X005589Y014813D03*
D43*
X005583Y014826D03*
D44*
X005570Y014839D03*
D45*
X005563Y014852D03*
D46*
X005550Y014865D03*
D47*
X005544Y014878D03*
D48*
X005531Y014891D03*
D49*
X005524Y014904D03*
D50*
X005518Y014917D03*
D51*
X005511Y014930D03*
D52*
X005498Y014943D03*
D53*
X005492Y014956D03*
D54*
X005479Y014969D03*
D55*
X005466Y014995D03*
D56*
X005453Y015008D03*
D57*
X005446Y015021D03*
D58*
X005433Y015034D03*
D59*
X004770Y015047D03*
X004770Y015112D03*
X004770Y015177D03*
X004770Y015242D03*
X004770Y015307D03*
X004770Y015372D03*
X004770Y015437D03*
X004770Y015502D03*
X004770Y015567D03*
X004770Y017452D03*
X004770Y017517D03*
X004770Y017582D03*
X004770Y017647D03*
X004770Y017712D03*
X004770Y017777D03*
X004770Y017842D03*
X004770Y017907D03*
X004770Y017972D03*
X004770Y018037D03*
X004770Y018102D03*
D60*
X008911Y018102D03*
X008911Y018037D03*
X008911Y017972D03*
X008911Y017907D03*
X008911Y017842D03*
X008911Y017777D03*
X008911Y017712D03*
X008911Y017647D03*
X008911Y017582D03*
X008911Y017517D03*
X008911Y017452D03*
X008911Y017387D03*
X008911Y017322D03*
X008911Y017257D03*
X008911Y017192D03*
X008911Y016867D03*
X008911Y016802D03*
X008911Y016737D03*
X008911Y016672D03*
X008911Y016607D03*
X008911Y016542D03*
X008911Y016477D03*
X008911Y015762D03*
X008911Y015697D03*
X008911Y015632D03*
X008911Y015567D03*
X008911Y015502D03*
X008911Y015437D03*
X008911Y015372D03*
X008911Y015307D03*
X008911Y015242D03*
X008911Y015177D03*
X008911Y015112D03*
X008911Y015047D03*
D61*
X004770Y015060D03*
X004770Y015073D03*
X004770Y015086D03*
X004770Y015099D03*
X004770Y015125D03*
X004770Y015138D03*
X004770Y015151D03*
X004770Y015164D03*
X004770Y015190D03*
X004770Y015203D03*
X004770Y015216D03*
X004770Y015229D03*
X004770Y015255D03*
X004770Y015268D03*
X004770Y015281D03*
X004770Y015294D03*
X004770Y015320D03*
X004770Y015333D03*
X004770Y015346D03*
X004770Y015359D03*
X004770Y015385D03*
X004770Y015398D03*
X004770Y015411D03*
X004770Y015424D03*
X004770Y015450D03*
X004770Y015463D03*
X004770Y015476D03*
X004770Y015489D03*
X004770Y015515D03*
X004770Y015528D03*
X004770Y015541D03*
X004770Y015554D03*
X004770Y015580D03*
X004770Y015593D03*
X004770Y015606D03*
X004770Y015619D03*
X004770Y017439D03*
X004770Y017465D03*
X004770Y017478D03*
X004770Y017491D03*
X004770Y017504D03*
X004770Y017530D03*
X004770Y017543D03*
X004770Y017556D03*
X004770Y017569D03*
X004770Y017595D03*
X004770Y017608D03*
X004770Y017621D03*
X004770Y017634D03*
X004770Y017660D03*
X004770Y017673D03*
X004770Y017686D03*
X004770Y017699D03*
X004770Y017725D03*
X004770Y017738D03*
X004770Y017751D03*
X004770Y017764D03*
X004770Y017790D03*
X004770Y017803D03*
X004770Y017816D03*
X004770Y017829D03*
X004770Y017855D03*
X004770Y017868D03*
X004770Y017881D03*
X004770Y017894D03*
X004770Y017920D03*
X004770Y017933D03*
X004770Y017946D03*
X004770Y017959D03*
X004770Y017985D03*
X004770Y017998D03*
X004770Y018011D03*
X004770Y018024D03*
X004770Y018050D03*
X004770Y018063D03*
X004770Y018076D03*
X004770Y018089D03*
D62*
X008911Y018089D03*
X008911Y018076D03*
X008911Y018063D03*
X008911Y018050D03*
X008911Y018024D03*
X008911Y018011D03*
X008911Y017998D03*
X008911Y017985D03*
X008911Y017959D03*
X008911Y017946D03*
X008911Y017933D03*
X008911Y017920D03*
X008911Y017894D03*
X008911Y017881D03*
X008911Y017868D03*
X008911Y017855D03*
X008911Y017829D03*
X008911Y017816D03*
X008911Y017803D03*
X008911Y017790D03*
X008911Y017764D03*
X008911Y017751D03*
X008911Y017738D03*
X008911Y017725D03*
X008911Y017699D03*
X008911Y017686D03*
X008911Y017673D03*
X008911Y017660D03*
X008911Y017634D03*
X008911Y017621D03*
X008911Y017608D03*
X008911Y017595D03*
X008911Y017569D03*
X008911Y017556D03*
X008911Y017543D03*
X008911Y017530D03*
X008911Y017504D03*
X008911Y017491D03*
X008911Y017478D03*
X008911Y017465D03*
X008911Y017439D03*
X008911Y017426D03*
X008911Y017413D03*
X008911Y017400D03*
X008911Y017374D03*
X008911Y017361D03*
X008911Y017348D03*
X008911Y017335D03*
X008911Y017309D03*
X008911Y017296D03*
X008911Y017283D03*
X008911Y017270D03*
X008911Y017244D03*
X008911Y017231D03*
X008911Y017218D03*
X008911Y017205D03*
X008911Y017179D03*
X008911Y017166D03*
X008911Y016880D03*
X008911Y016854D03*
X008911Y016841D03*
X008911Y016828D03*
X008911Y016815D03*
X008911Y016789D03*
X008911Y016776D03*
X008911Y016763D03*
X008911Y016750D03*
X008911Y016724D03*
X008911Y016711D03*
X008911Y016698D03*
X008911Y016685D03*
X008911Y016659D03*
X008911Y016646D03*
X008911Y016633D03*
X008911Y016620D03*
X008911Y016594D03*
X008911Y016581D03*
X008911Y016568D03*
X008911Y016555D03*
X008911Y016529D03*
X008911Y016516D03*
X008911Y016503D03*
X008911Y016490D03*
X008911Y016464D03*
X008911Y016451D03*
X008911Y016438D03*
X008911Y016425D03*
X008911Y015775D03*
X008911Y015749D03*
X008911Y015736D03*
X008911Y015723D03*
X008911Y015710D03*
X008911Y015684D03*
X008911Y015671D03*
X008911Y015658D03*
X008911Y015645D03*
X008911Y015619D03*
X008911Y015606D03*
X008911Y015593D03*
X008911Y015580D03*
X008911Y015554D03*
X008911Y015541D03*
X008911Y015528D03*
X008911Y015515D03*
X008911Y015489D03*
X008911Y015476D03*
X008911Y015463D03*
X008911Y015450D03*
X008911Y015424D03*
X008911Y015411D03*
X008911Y015398D03*
X008911Y015385D03*
X008911Y015359D03*
X008911Y015346D03*
X008911Y015333D03*
X008911Y015320D03*
X008911Y015294D03*
X008911Y015281D03*
X008911Y015268D03*
X008911Y015255D03*
X008911Y015229D03*
X008911Y015216D03*
X008911Y015203D03*
X008911Y015190D03*
X008911Y015164D03*
X008911Y015151D03*
X008911Y015138D03*
X008911Y015125D03*
X008911Y015099D03*
X008911Y015086D03*
X008911Y015073D03*
X008911Y015060D03*
D63*
X008313Y015593D03*
D64*
X008313Y015619D03*
X007572Y016334D03*
X007572Y016360D03*
X007559Y016399D03*
X007533Y017101D03*
X008001Y017140D03*
D65*
X005355Y015632D03*
D66*
X006883Y015632D03*
D67*
X008319Y015632D03*
D68*
X007006Y015710D03*
X005355Y015658D03*
X005355Y015645D03*
D69*
X006948Y015645D03*
D70*
X008313Y015645D03*
D71*
X006967Y015658D03*
D72*
X008118Y016724D03*
X008313Y015658D03*
D73*
X005362Y015671D03*
X005362Y015684D03*
X005362Y015710D03*
X005362Y015723D03*
X005362Y015736D03*
X005362Y015749D03*
X005362Y015775D03*
X005362Y015788D03*
X005362Y015801D03*
D74*
X006980Y015671D03*
D75*
X008313Y015671D03*
X008690Y015905D03*
X008690Y016243D03*
X008430Y016438D03*
X008690Y017140D03*
X006168Y017348D03*
X006168Y017361D03*
X006168Y017374D03*
X006168Y017400D03*
X006168Y017413D03*
D76*
X006993Y015684D03*
D77*
X008183Y016659D03*
X008404Y016464D03*
X008677Y016269D03*
X008313Y015684D03*
X006168Y017270D03*
X006168Y017283D03*
X006168Y017296D03*
X006168Y017309D03*
X004998Y017309D03*
X004998Y017296D03*
X004998Y017283D03*
X004998Y017270D03*
X004998Y017244D03*
X004998Y017231D03*
X004998Y017218D03*
X004998Y017205D03*
X004998Y017179D03*
X004998Y017166D03*
X004998Y017153D03*
X004998Y017140D03*
X004998Y017114D03*
X004998Y017101D03*
X004998Y017088D03*
X004998Y017075D03*
X004998Y017049D03*
X004998Y017036D03*
X004998Y017023D03*
X004998Y017010D03*
X004998Y016984D03*
X004998Y016971D03*
X004998Y016958D03*
X004998Y016945D03*
X004998Y016919D03*
X004998Y016906D03*
X004998Y016893D03*
X004998Y016880D03*
X004998Y016854D03*
X004998Y016841D03*
X004998Y016828D03*
X004998Y016815D03*
X004998Y016789D03*
X004998Y016776D03*
X004998Y016763D03*
X004998Y016750D03*
X004998Y016724D03*
X004998Y016711D03*
X004998Y016698D03*
X004998Y016685D03*
X004998Y016659D03*
X004998Y016646D03*
X004998Y016633D03*
X004998Y016620D03*
X004998Y016594D03*
X004998Y016581D03*
X004998Y016568D03*
X004998Y016555D03*
X004998Y016529D03*
X004998Y016516D03*
X004998Y016503D03*
X004998Y016490D03*
X004998Y016464D03*
X004998Y016451D03*
X004998Y016438D03*
X004998Y016425D03*
X004998Y016399D03*
X004998Y016386D03*
X004998Y016373D03*
X004998Y016360D03*
X004998Y016334D03*
X004998Y016321D03*
X004998Y016308D03*
X004998Y016295D03*
X004998Y016269D03*
X004998Y016256D03*
X004998Y016243D03*
X004998Y016230D03*
X004998Y016204D03*
X004998Y016191D03*
X004998Y016178D03*
X004998Y016165D03*
X004998Y016139D03*
X004998Y016126D03*
X004998Y016113D03*
X004998Y016100D03*
X004998Y016074D03*
X004998Y016061D03*
X004998Y016048D03*
X004998Y016035D03*
X004998Y016009D03*
X004998Y015996D03*
X004998Y017335D03*
X004998Y017348D03*
X004998Y017361D03*
X004998Y017374D03*
X004998Y017400D03*
X004998Y017413D03*
X004998Y017426D03*
D78*
X005362Y015762D03*
X005362Y015697D03*
D79*
X007000Y015697D03*
D80*
X008313Y015697D03*
D81*
X008313Y015710D03*
X008638Y016334D03*
X006168Y017010D03*
X006168Y017023D03*
D82*
X007013Y015723D03*
D83*
X008313Y015723D03*
D84*
X007019Y015736D03*
D85*
X007780Y016009D03*
X007780Y016035D03*
X007780Y016048D03*
X007780Y016061D03*
X007780Y016074D03*
X007780Y016100D03*
X007780Y016113D03*
X007780Y016126D03*
X007780Y016139D03*
X007780Y016165D03*
X007780Y016178D03*
X007780Y016191D03*
X007780Y016204D03*
X007780Y016230D03*
X007780Y016243D03*
X007780Y016256D03*
X007780Y016269D03*
X007780Y016893D03*
X007780Y016906D03*
X007780Y016919D03*
X008313Y015736D03*
D86*
X007026Y015749D03*
D87*
X007786Y016880D03*
X008319Y015749D03*
D88*
X007026Y015762D03*
D89*
X007793Y016867D03*
X008313Y015762D03*
D90*
X007032Y015775D03*
X007032Y015788D03*
D91*
X008313Y015775D03*
D92*
X008436Y015788D03*
X008436Y015801D03*
D93*
X007039Y015801D03*
X007039Y015814D03*
D94*
X005368Y015814D03*
X005368Y015840D03*
X005368Y015853D03*
X005368Y015866D03*
X005368Y015879D03*
X005368Y015905D03*
X005368Y015918D03*
X005368Y015931D03*
X005368Y015944D03*
D95*
X008430Y015814D03*
D96*
X005368Y015827D03*
X005368Y015892D03*
D97*
X007032Y015827D03*
D98*
X008430Y015827D03*
D99*
X007039Y015840D03*
X007039Y015853D03*
X007039Y015866D03*
D100*
X008423Y015866D03*
X008423Y015853D03*
X008423Y015840D03*
D101*
X007656Y015879D03*
D102*
X007273Y015892D03*
D103*
X008391Y016477D03*
X008677Y015892D03*
X006168Y017257D03*
X004998Y017257D03*
X004998Y017322D03*
X004998Y017387D03*
X004998Y017192D03*
X004998Y017127D03*
X004998Y017062D03*
X004998Y016997D03*
X004998Y016932D03*
X004998Y016867D03*
X004998Y016802D03*
X004998Y016737D03*
X004998Y016672D03*
X004998Y016607D03*
X004998Y016542D03*
X004998Y016477D03*
X004998Y016412D03*
X004998Y016347D03*
X004998Y016282D03*
X004998Y016217D03*
X004998Y016152D03*
X004998Y016087D03*
X004998Y016022D03*
D104*
X007260Y015905D03*
D105*
X007253Y015918D03*
X007253Y015931D03*
D106*
X008696Y015918D03*
X008696Y016230D03*
X008696Y016893D03*
X008696Y016906D03*
X008696Y016919D03*
X008696Y016945D03*
X008696Y016958D03*
X008696Y016971D03*
X008696Y016984D03*
X008696Y017010D03*
X008696Y017023D03*
X008696Y017036D03*
X008696Y017049D03*
X008696Y017075D03*
X008696Y017088D03*
X008696Y017101D03*
X008696Y017114D03*
X006174Y017426D03*
D107*
X008443Y016425D03*
X008703Y016204D03*
X008703Y016191D03*
X008703Y016178D03*
X008703Y015944D03*
X008703Y015931D03*
D108*
X007799Y016854D03*
X008280Y017283D03*
X007175Y017348D03*
X006733Y015944D03*
D109*
X007747Y015944D03*
X007812Y016828D03*
X008280Y017270D03*
D110*
X005914Y015957D03*
D111*
X007760Y015957D03*
X008579Y016412D03*
D112*
X008709Y016152D03*
X008709Y016087D03*
X008709Y016022D03*
X008709Y015957D03*
D113*
X005914Y015970D03*
X005914Y015983D03*
D114*
X007169Y016620D03*
X007767Y015970D03*
X008287Y017296D03*
D115*
X008280Y017400D03*
X008709Y016165D03*
X008709Y016139D03*
X008709Y016126D03*
X008709Y016113D03*
X008709Y016100D03*
X008709Y016074D03*
X008709Y016061D03*
X008709Y016048D03*
X008709Y016035D03*
X008709Y016009D03*
X008709Y015996D03*
X008709Y015983D03*
X008709Y015970D03*
D116*
X008592Y016399D03*
X007773Y015996D03*
X007773Y015983D03*
X007162Y016581D03*
X007162Y017361D03*
X008280Y017309D03*
D117*
X006415Y016048D03*
X006415Y016035D03*
X006415Y016009D03*
X006415Y015996D03*
D118*
X006415Y016022D03*
D119*
X007780Y016022D03*
X007780Y016087D03*
X007780Y016152D03*
X007780Y016217D03*
D120*
X007247Y016451D03*
X006181Y016139D03*
X006181Y016126D03*
X006181Y016113D03*
X006181Y016100D03*
X006181Y016074D03*
X006181Y016061D03*
D121*
X006954Y016061D03*
X006954Y016074D03*
X006954Y016100D03*
X006954Y016113D03*
X006954Y016126D03*
X006954Y016139D03*
X006954Y016165D03*
X006954Y016178D03*
X006954Y016191D03*
X006954Y016204D03*
X006954Y016230D03*
X006954Y016243D03*
X006954Y016256D03*
X006954Y016269D03*
X006954Y016295D03*
X006954Y016308D03*
X006954Y016321D03*
X006954Y016334D03*
X006954Y016360D03*
X006954Y016373D03*
X006954Y016386D03*
X006954Y016399D03*
X006954Y016425D03*
X006954Y016438D03*
X006954Y016724D03*
X006954Y016750D03*
X006954Y016763D03*
X006954Y016776D03*
X006954Y016789D03*
X006954Y016815D03*
X006954Y016828D03*
X006954Y016841D03*
X006954Y016854D03*
X006954Y016880D03*
X006954Y016893D03*
X006954Y016906D03*
X006954Y016919D03*
X006954Y016945D03*
X006954Y016958D03*
X006954Y016971D03*
X006954Y016984D03*
X006954Y017010D03*
X006954Y017023D03*
X006954Y017036D03*
X006954Y017049D03*
X006954Y017075D03*
X006954Y017088D03*
X006954Y017101D03*
X006954Y017114D03*
X007578Y016321D03*
X007578Y016308D03*
X007578Y016295D03*
X008007Y017153D03*
D122*
X006181Y016087D03*
D123*
X006954Y016087D03*
X006954Y016152D03*
X006954Y016217D03*
X006954Y016282D03*
X006954Y016347D03*
X006954Y016412D03*
X006954Y016737D03*
X006954Y016802D03*
X006954Y016867D03*
X006954Y016932D03*
X006954Y016997D03*
X006954Y017062D03*
X007552Y016412D03*
X007578Y016282D03*
D124*
X007240Y016477D03*
X007240Y017127D03*
X006174Y016152D03*
D125*
X006181Y016165D03*
X006181Y016178D03*
X006181Y016191D03*
X006181Y016204D03*
X007234Y016490D03*
X007234Y017153D03*
X007234Y017166D03*
X007234Y017179D03*
D126*
X007234Y017192D03*
X006181Y016217D03*
D127*
X008703Y016217D03*
D128*
X006174Y016230D03*
X006174Y016243D03*
D129*
X006181Y016256D03*
X006181Y016269D03*
X007221Y016516D03*
X007221Y016685D03*
X007221Y017231D03*
X007221Y017244D03*
D130*
X006174Y017335D03*
X008683Y017153D03*
X008683Y016256D03*
D131*
X006473Y016282D03*
X006460Y016347D03*
X006447Y016477D03*
X005927Y016607D03*
X005953Y016802D03*
X005888Y016347D03*
X005888Y016282D03*
D132*
X008670Y016282D03*
D133*
X008664Y016295D03*
X008352Y016516D03*
X008222Y016620D03*
D134*
X008267Y016581D03*
X008280Y016568D03*
X008332Y016529D03*
X008657Y016308D03*
D135*
X008644Y016321D03*
X008280Y017361D03*
X006174Y017075D03*
X006174Y017049D03*
X006174Y017036D03*
D136*
X007572Y016347D03*
D137*
X008625Y016347D03*
D138*
X008618Y016360D03*
D139*
X007565Y016373D03*
X007565Y016386D03*
X008280Y017439D03*
D140*
X008605Y016373D03*
D141*
X008599Y016386D03*
X007767Y017049D03*
X007767Y017075D03*
D142*
X006441Y016529D03*
X006441Y016516D03*
X006441Y016503D03*
X006441Y016490D03*
X006454Y016399D03*
X006415Y016685D03*
X006415Y016698D03*
X006415Y016711D03*
X006415Y016724D03*
X005947Y016750D03*
X005947Y016763D03*
X005947Y016776D03*
X005947Y016789D03*
X005960Y016841D03*
X005960Y016854D03*
X005960Y016880D03*
X005934Y016685D03*
X005934Y016659D03*
X005934Y016646D03*
X005921Y016581D03*
X005921Y016568D03*
X005921Y016555D03*
D143*
X005934Y016672D03*
X005947Y016737D03*
X005960Y016867D03*
X006415Y016737D03*
X006441Y016542D03*
X006454Y016412D03*
D144*
X007546Y016425D03*
X007520Y017114D03*
D145*
X007507Y016438D03*
D146*
X006428Y016581D03*
X006428Y016594D03*
X006428Y016620D03*
X006428Y016633D03*
X006428Y016646D03*
X005973Y016945D03*
X005973Y016958D03*
X005973Y016971D03*
X005973Y016984D03*
X005908Y016464D03*
X005908Y016451D03*
D147*
X008157Y016685D03*
X008417Y016451D03*
D148*
X007240Y016464D03*
X007240Y017140D03*
D149*
X006428Y016607D03*
X005908Y016477D03*
D150*
X006174Y017231D03*
X006174Y017244D03*
X008202Y016646D03*
X008371Y016490D03*
D151*
X007227Y016503D03*
X007227Y016698D03*
X007227Y016711D03*
X007227Y017205D03*
X007227Y017218D03*
D152*
X007091Y017413D03*
X006168Y017218D03*
X006168Y017205D03*
X006168Y017179D03*
X008365Y016503D03*
D153*
X007214Y016529D03*
X007214Y017270D03*
D154*
X007208Y016542D03*
X007832Y016802D03*
D155*
X008319Y016542D03*
X006174Y017127D03*
D156*
X007195Y017309D03*
X007195Y016646D03*
X007195Y016555D03*
D157*
X006174Y017140D03*
X006174Y017153D03*
X006174Y017166D03*
X008254Y016594D03*
X008306Y016555D03*
D158*
X007806Y016841D03*
X007182Y016633D03*
X007182Y016568D03*
X007182Y017335D03*
D159*
X007143Y016594D03*
D160*
X007143Y016607D03*
D161*
X006168Y017192D03*
X008235Y016607D03*
D162*
X008215Y016633D03*
X008280Y017374D03*
D163*
X006421Y016659D03*
X006408Y016750D03*
X006408Y016763D03*
X006408Y016776D03*
X006408Y016789D03*
X006408Y016815D03*
X006395Y016828D03*
X006395Y016841D03*
X006395Y016854D03*
X006395Y016880D03*
X006395Y016893D03*
X006395Y016906D03*
X006382Y016984D03*
D164*
X007208Y017283D03*
X007208Y016659D03*
X008287Y017218D03*
D165*
X006421Y016672D03*
X006408Y016802D03*
X006395Y016867D03*
D166*
X007214Y016672D03*
X007214Y017257D03*
D167*
X006174Y017322D03*
X008176Y016672D03*
D168*
X008150Y016698D03*
D169*
X008131Y016711D03*
D170*
X007507Y016724D03*
D171*
X007526Y016737D03*
X007994Y017127D03*
D172*
X008111Y016737D03*
D173*
X007994Y017114D03*
X007539Y017088D03*
X007539Y016750D03*
D174*
X008092Y016750D03*
D175*
X008085Y016763D03*
X008280Y017413D03*
D176*
X008072Y016776D03*
D177*
X007832Y016789D03*
X008274Y017166D03*
D178*
X007819Y016815D03*
D179*
X006389Y016932D03*
D180*
X007773Y016932D03*
X007773Y016997D03*
D181*
X008696Y016997D03*
X008696Y017062D03*
X008696Y016932D03*
D182*
X007773Y016945D03*
X007773Y016958D03*
X007773Y016971D03*
X007773Y016984D03*
X007773Y017010D03*
X007773Y017023D03*
X007773Y017036D03*
X007149Y017374D03*
D183*
X006174Y016997D03*
D184*
X006174Y017062D03*
D185*
X007767Y017062D03*
D186*
X006168Y017088D03*
X006168Y017101D03*
X006168Y017114D03*
D187*
X006168Y017387D03*
X008690Y017127D03*
D188*
X008280Y017179D03*
X008280Y017205D03*
D189*
X008280Y017192D03*
D190*
X008280Y017231D03*
X008280Y017244D03*
D191*
X008287Y017257D03*
D192*
X007201Y017296D03*
D193*
X007188Y017322D03*
D194*
X008280Y017322D03*
D195*
X008280Y017335D03*
D196*
X008280Y017348D03*
D197*
X007136Y017387D03*
D198*
X008280Y017387D03*
D199*
X007117Y017400D03*
D200*
X007032Y017426D03*
D201*
X008280Y017426D03*
D202*
X008280Y017452D03*
D203*
X008274Y017465D03*
D204*
X005401Y018115D03*
X005401Y018128D03*
X005401Y018141D03*
X005401Y018154D03*
X005401Y018180D03*
X005401Y018310D03*
X005401Y018323D03*
X005401Y018336D03*
X005401Y018349D03*
D205*
X005401Y018362D03*
X005401Y018297D03*
X005401Y018167D03*
D206*
X006837Y018193D03*
X006837Y018206D03*
X006837Y018219D03*
X006837Y018245D03*
X006837Y018258D03*
X006837Y018271D03*
X006837Y018284D03*
D207*
X006837Y018232D03*
D208*
X011874Y017089D02*
X011874Y016849D01*
X012192Y016817D01*
X012226Y016710D01*
X012278Y016611D01*
X012076Y016363D01*
X012245Y016194D01*
X012493Y016395D01*
X012592Y016344D01*
X012734Y016685D01*
X012681Y016713D01*
X012634Y016752D01*
X012596Y016798D01*
X012567Y016851D01*
X012550Y016909D01*
X012544Y016969D01*
X012550Y017032D01*
X012569Y017092D01*
X012601Y017147D01*
X012642Y017195D01*
X012693Y017233D01*
X012750Y017259D01*
X012811Y017274D01*
X012874Y017276D01*
X012937Y017265D01*
X012995Y017241D01*
X013048Y017206D01*
X013092Y017161D01*
X013126Y017108D01*
X013149Y017049D01*
X013159Y016986D01*
X013156Y016923D01*
X013140Y016862D01*
X013112Y016805D01*
X013073Y016756D01*
X013025Y016715D01*
X012969Y016685D01*
X013110Y016344D01*
X013210Y016395D01*
X013457Y016194D01*
X013627Y016363D01*
X013425Y016611D01*
X013477Y016710D01*
X013511Y016817D01*
X013828Y016849D01*
X013828Y017089D01*
X013511Y017121D01*
X013477Y017228D01*
X013425Y017328D01*
X013627Y017575D01*
X013457Y017745D01*
X013210Y017543D01*
X013110Y017594D01*
X013004Y017628D01*
X012971Y017946D01*
X012731Y017946D01*
X012699Y017628D01*
X012592Y017594D01*
X012493Y017543D01*
X012245Y017745D01*
X012076Y017575D01*
X012278Y017328D01*
X012226Y017228D01*
X012192Y017121D01*
X011874Y017089D01*
X011874Y017081D02*
X012566Y017081D01*
X012549Y017023D02*
X011874Y017023D01*
X011874Y016965D02*
X012544Y016965D01*
X012550Y016908D02*
X011874Y016908D01*
X011874Y016850D02*
X012568Y016850D01*
X012600Y016793D02*
X012200Y016793D01*
X012218Y016735D02*
X012654Y016735D01*
X012731Y016677D02*
X012243Y016677D01*
X012273Y016620D02*
X012707Y016620D01*
X012683Y016562D02*
X012238Y016562D01*
X012191Y016505D02*
X012659Y016505D01*
X012635Y016447D02*
X012144Y016447D01*
X012097Y016389D02*
X012486Y016389D01*
X012504Y016389D02*
X012611Y016389D01*
X012415Y016332D02*
X012107Y016332D01*
X012165Y016274D02*
X012344Y016274D01*
X012274Y016217D02*
X012222Y016217D01*
X013020Y016562D02*
X013465Y016562D01*
X013430Y016620D02*
X012996Y016620D01*
X012972Y016677D02*
X013460Y016677D01*
X013485Y016735D02*
X013048Y016735D01*
X013102Y016793D02*
X013503Y016793D01*
X013512Y016505D02*
X013044Y016505D01*
X013068Y016447D02*
X013559Y016447D01*
X013606Y016389D02*
X013217Y016389D01*
X013199Y016389D02*
X013092Y016389D01*
X013288Y016332D02*
X013596Y016332D01*
X013538Y016274D02*
X013358Y016274D01*
X013429Y016217D02*
X013481Y016217D01*
X013134Y016850D02*
X013828Y016850D01*
X013828Y016908D02*
X013152Y016908D01*
X013158Y016965D02*
X013828Y016965D01*
X013828Y017023D02*
X013153Y017023D01*
X013136Y017081D02*
X013828Y017081D01*
X013505Y017138D02*
X013106Y017138D01*
X013058Y017196D02*
X013487Y017196D01*
X013464Y017253D02*
X012965Y017253D01*
X012737Y017253D02*
X012239Y017253D01*
X012216Y017196D02*
X012644Y017196D01*
X012596Y017138D02*
X012198Y017138D01*
X012269Y017311D02*
X013434Y017311D01*
X013459Y017369D02*
X012244Y017369D01*
X012197Y017426D02*
X013506Y017426D01*
X013553Y017484D02*
X012150Y017484D01*
X012103Y017541D02*
X013600Y017541D01*
X013603Y017599D02*
X013279Y017599D01*
X013349Y017657D02*
X013546Y017657D01*
X013488Y017714D02*
X013420Y017714D01*
X013096Y017599D02*
X012607Y017599D01*
X012702Y017657D02*
X013001Y017657D01*
X012995Y017714D02*
X012708Y017714D01*
X012714Y017772D02*
X012989Y017772D01*
X012983Y017829D02*
X012720Y017829D01*
X012725Y017887D02*
X012977Y017887D01*
X012972Y017945D02*
X012731Y017945D01*
X012424Y017599D02*
X012100Y017599D01*
X012157Y017657D02*
X012354Y017657D01*
X012283Y017714D02*
X012215Y017714D01*
M02*
